<?xml version="1.0" standalone="no"?>
<!DOCTYPE svg PUBLIC "-//W3C//DTD SVG 20010904//EN"
 "http://www.w3.org/TR/2001/REC-SVG-20010904/DTD/svg10.dtd">
<svg version="1.0" xmlns="http://www.w3.org/2000/svg"
 width="239.000000pt" height="239.000000pt" viewBox="0 0 239.000000 239.000000"
 preserveAspectRatio="xMidYMid meet">
<metadata>
Created by potrace 1.14, written by Peter Selinger 2001-2017
</metadata>
<g transform="translate(0.000000,239.000000) scale(0.100000,-0.100000)"
fill="#000000" stroke="none">
<path d="M755 1929 c-104 -17 -212 -62 -312 -131 -103 -70 -222 -225 -266
-348 -89 -246 -43 -526 119 -725 60 -73 78 -91 143 -139 202 -148 466 -183
708 -96 27 10 44 7 115 -16 103 -33 256 -41 363 -19 523 109 771 703 479 1147
-136 205 -348 325 -594 333 -113 4 -181 -5 -273 -37 -55 -19 -61 -19 -100 -4
-110 41 -262 55 -382 35z"/>
</g>
</svg>
